<svg xmlns="http://www.w3.org/2000/svg" width="2150" height="2150" viewBox="0 0 568.9 568.9" fill="currentColor"><path stroke="#000" d="M755 138c22.3778-40.0115 37.3417-133.3652 99.1827-113.3984 50.2842 85.9889 22.5617 208.5952-49.8052 274.9884-.2363 49.4784-38.2653 138.0976-64.9175 50.87C724.4626 372.2248 789.4854 422.0444 759 453c-8.166 56.2227 23.6645 18.6262 35.6876 76.225 27.9381 50.4274 46.659 106.2223 63.4597 161.6393C889.4924 742.93 898.1856 803.8331 927.8 857c17.9017 63.2204 45.746 123.4369 69.618 184.3111 27.5497 81.3506 28.7347-14.2873 82.7928-13.9303 33.8965-38.244-82.1794 39.9571-13.3612-22.8377 35.1464-17.0331 16.1179-11.2817 59.6245-17.4206 12.5952 15.1956 18.5749 12.3606-1.5304-13.6975 86.0823-46.3181-82.7154-14.7085-4.7903-16.6505 21.5953 9.9348-70.3463 38.6836-18.1934 10.0955-68.977 7.704 54.8246-42.9839 11.63-49.87 21.8206-13.6794 112.632-27.8427 86.02-15.61-41.345 41.2115 2.7977 34.6401.58 34.265-38.3003 21.9566-14.4073 40.7554-53.98 72.294-3.72 2.5669-95.7879 49.322-53.6565 35.3524 46.8692-2.9848 68.7309-76.8108 121.4165-59.2614-2.8258-25.9414 64.3055-33.0986 74.73-30.02 23.1295-9.8948-4.5183 5.8567-9.9488-7.3875-27.8635-28.9517 60.2032-14.6517-2.2097-35.3074-24.9371-9.0913-89.7701-17.7418-29.4115-18.3251-19.0968-30.3255-54.653-2.4402-13.13-36 70.1338 55.9002 23.9909-23.9373-23-17 23.2364-23.6762 45.9877-11.2032 80.5079-21.0298 15.9121 5.2971 88.8994-7.914 45.4921 10.5998-57.9205 7.8858-31.3979 41.8713-12.033 12.6802 36.3134-15.9688 22.422 28.409 43.3467-1.6377 52.1837-12.1676-71.6286-63.3081-44.3287-39.94 29.3668-16.802-49.0149-9.3189-18.18 10.6187-38.8053-5.1148-94.1293-11.2735-25.35-17.9987 50.2186-4.2383-37.5134 2.8803 2.715-38.2925-16.3383-46.0194 38.8287-59.293 41.83-47 5.7552 43.7023 25.3918 103.1207 87 105 1.8291 26.2371 12.2006 31.5662-7 23 1.827 39.8606 18.2797-1.9628 39.1378 29.6173C1475.161 897.8815 1386.9895 879.6653 1384 852c-6.6965-7.189 2.7846 22.0851-32.19 11.07 21.4477 30.782-43.2949-10.7475-16.81 25.93-50.2799 28.304 70.1114-41.0753 99.0025 9.0237 82.2292 36.447-7.5834-75.4648 55.0237-33.2112-1.9762 3.1729-9.7494-40.1075 6.9018-59.6897 38.5262-11.5991 28.1275 73.232 77.2175 78.113 38.9157 5.9128 67.7078 29.5789 97.8545 56.7642 8.787 50.2986 73.5593 90.8831 79 70-61.651-9.1875-7.715 9.7482 28.58 9.84 18.0393 47.6545 27.3369 93.9737 52.3985 138.6722 19.0742 53.0487 39.737 98.8405 58.4252 150.8357 20.6375 34.6536 30.462 72.1005 50.8963 107.6521-5.6371 50.6296 30.4693 99.3781 13.79 131 5.9648 41.5189.07 71.083-38.68 84.09-32.3094 39.7717 17.0454 42.724-12.41 58.91 47.7674 19.7002-20.909 69.3572-8.02 115.0381 18.0909 59.8531-33.3353 34.463-19.54 22.9619-2.6177 36.0501-45.4415 33.3969 5.39 60.11-13.878 16.6991-61.4847 6.6869-88.83 10.89-54.1546-8.6375-115.0116-28.1179-97.1156-88.9166-59.5632-22.0161-83.8159-42.4703-96.7344-87.6024 2.6981-20.289 28.2201 5.5278-.2475-25.6623-50.4512-19.4325 27.7921 7.0736-12.8865-41.4315-22.546-30.0401-24.6399-58.7753-55.016-82.3872-17.32-32.3007-37.8684-62.2246-55.37-82.34-22.0921-21.873-31.5685-35.4084-35.5313-61.2775-27.6683-79.9153 14.629 18.6453 5.9013-14.3825 3.4474-29.4391-59.3451-108.2805-26-106-20.4937-14.6468-24.0343-70.5749-28-60.2 52.1963 15.2897-32.2836-29.3926-40.72-24.49-15.2602-24.4747 55.0545-12.2365.24-36.47 3.8052-24.7067-46.779 1.0332-69.52-44.84 17.2509-14.6913-17.086-39.2187-6.685-42.8038-13.5559.4742-26.0162-78.8115-26.39-34.8687-14.2882-53.7693-92.215 2.5808-84.925-11.7975-38.7968 25.4898-69.1037 42.1432-81.12 78.61-46.6004 26.4368-27.0735 70.9094-9.47 110.6 12.6698 1.2175 3.9892-45.0872 19.21 2.26-7.8977 29.3088-4.8924 59.8317 10.0964 91.0815 2.4667 29.3537 12.7185 57.9118 26.2836 80.9185-8.9815 41.046 26.5589 78.0256 21.02 113-12.6556 53.7104 50.9215 65.5856 42.2158 59.2547 7.9651 18.6553 51.0365-66.0555 46.5442-50.2547.9335-41.6348 7.5968-64.4453 32.03-56.3-30.0453-37.8137 32.4823-45.3111.4337-59.85 25.7836-68.6299 9.3185 36.2499 27.1838 17.2112 21.1104 25.1564 18.5114 49.523-4.6954 31.0058-13.7384 20.6676-8.0808 58.0292 27.0354 46.0717-42.3552-66.5509 17.2514.2949 13.8075 3.3188 12.1554-39.5698 16.9555 68.1203 30.9334 22.0917-.9017-33.5879-25.1365-81.3228-22.9684-115.5292 2.8209 14.9339 33.6531 52.269 55.3 70.98-5.4763 30.0295 36.8033-45.0615 16.75 13.28-19.5007-.2732 12.5564 55.7326-23.8775 8.3787-16.2912-64.8508-25.0448 27.4837 8.4275 50.1175 23.0171 38.8772-.432-7.9507 22.4687-15.695 14.5627-40.3229 44.0139-27.3007.3913-67.0812 17.2159-48.6493 31.6512 11.6244 43.68 42.3812-43.1116 6.8229 62.5755 57.8755 33.44 43.3375 23.1105 11.8112 30.7023 44.7076 43.23 92.2613-22.5802-13.4855-55.6645 30.0393-9.35 15.02 25.0349 19.2594-18.2848 15.0364-42 15.94-72.5057 14.1137-14.8607 17.2217 24 7.06-20.492 23.4222-50.4827 66.2186-64 51.85 66.8905 9.7716-19.675 15.3969-2 34.15-26.2735 8.9543-56.206 24.6999-71 48-19.6218-45.9732-99.9795-34.1872-153.8365-66.4335-47.5171 2.4201-103.3322-45.5191-144.8689-5.5735-50.912 49.159-135.7385 103.8739-111.2546 96.887-47.938 7.2201-95.9187 13.2794-144.5763 18.3712-10.0102 65.2759-77.8587-58.2917-25.1837-36.4512-16.0454-6.5226-7.2987-24.132-7.12-31.78-32.1652 25.7884-13.0208-31.3003 3.7672-14.1941 15.8772-41.0193 13.6673 42.2119 23.7828-.5909 54.0136-1.7094-60.8108-36.6862 11.29-20.505 57.566-5.8462 16.3337-14.7516 31.5412-44.1413 36.3283-11.0798 31.1131-21.3694 66.3425-41.28-15.581-5.0308 29.8415-54.4121 15.275-48.1487 31.0934.8916-45.9417-33.7431-59.5125-50.7984-56.6635-42.6856-104.638-98.5285-126.7484-167.4002-23.7289-53.5208-51.991-105.0432-68.4703-160.7388-27.8618-52.8103-45.2978-111.083-60.6007-168.5769C610.4298 1011.933 581.9692 931.199 559.01 848c16.9168-90.5251-70.0862-105.0252-140.6737-69.2425-55.1534 18.7756-90.5654-3.1823-29.3563-42.2775 39.262-24.878 59.1549-81.179 36.02-92.48-27.6711-29.1236 46.4873-41.9356 30.422-82.3327 19.566-38.8293-9.4236-48.9123-28.8495-84.5123 7.3304-19.588 47.7622-78.5278 53.4275-62.195 19.8423-6.2327 76.604-39.3575 116.9515-53.6796 24.871-17.8876 62.0257-12.5106 36.931-30.0042 38.1045-5.925 64.6131 14.1845 24.5475-16.4462C677.0075 297.1909 729.928 336.9 707 284c33.058-24.0986 14.358-110.3238 41.14-111.91 7.1915 33.765 41.7255-8.434 16.0817-27.937 17.7076-23.8306 4.704-29.1722-9.2217-6.153Zm67-36c-10.2262 7.5749 8.2803 5.77 0 0zm27 25c-25.0838-23.8883-15.9718 5.6083 0 0zM544 313c-58.5631 16.3776-61.6455-123.3466-37.0948-169.7043 42.2501-64.56 51.1183 77.151 90.4257 96.7309 51.6755 45.6225 6.2707 63.6832-37.2077 69.0907-44.4805-3.0069 20.3832-84.4905-8.0932-124.1173-49.6592-25.6307-12.2969 39.7933-17.8484 64.5103C537.376 277.3237 506.6014 304.436 544 313Zm280.16-186.23c-4.1342 20.7908 35.4602 1.3448 0 0zM748 158c-2.1335-18.9369 11.6723-.7003 0 0zm-228 2c-3.5443-7.8329-32.4315 38.168 0 0zm-13 13c-28.2374 60.244 22.6518 72.5826 5.6413 9.2825zm260 34c-32.576-48.57-16.0898 103.367 2.6325 46.9763C767.3433 243.385 783.1455 208.069 767 207Zm-259 34c-10.464 17.8452 16.6876 19.254 0 0zm222 24c19.5301-14.2796-8.671-17.938 0 0zm-55 23c9.7506-81.4723 57.1315-1.2164 0 0zm104-16c-52.0719-1.2612-25.8021 51.9567 0 0zm-186 41c10.9349-.9266-3.1315 13.0579 0 0zm40 4c14.8994-5.4858-3.464 11.9079 0 0zm-20 22c11.0387-13.9647 20.4404.3222 0 0zm110 19.77c-55.1921-34.5943-79.0052-5.443-9.17 0l4.5775 2.2425zM662 356c-22.1929 34.5557-78.9835 17.1846-100.161 55.7481-1.6275 25.432-15.1364 21.6859 19.8547 26.5156-3.8974 47.5845 44.1305 31.1327 80.2863 35.9963 31.9614 2.0297 87.0658-46.1271 22.9458-31.2604C646.7386 435.7371 565.6165 420.6291 649 397.93c39.2318-36.8046 110.6932 54.565 75.69-14.63-14.98-24.0522-63.0614-3.4174-62.69-27.3Zm-156 13c9.2136-1.5488-1.5488 9.2136 0 0zm-23 17c27.659-15.9614-.2528 18.0527 0 0zm-8 5c12.755-2.3405-2.8245 22.03 0 0zm-53 11c7.8838-21.7977 21.4494-3.9742 0 0zm345 0c12.2848-2.065-2.065 12.2848 0 0zm-355.85 45.74c19.3822-2.772-10.2178 17.552 0 0zM467 454c6.4163-9.5671-12.6035-1.4543 0 0zm267 87c45.2859-52.2105-40.976 25.0663-23.09 65-25.805 35.9058-32.8675 109.0056 1.4025 31.6725C722.9064 606.8445 726.4269 573.2022 734 541ZM312 808c-42.4312 40.888-130.9022-23.3824-128.8718-77.4224C199.6785 689.1695 174.9206 644.005 202.52 606c25.2389-42.71 27.0368 15.5803 23.3327-1.9517 35.1237-11.7184 66.5384-26.102 44.1573 13.6517 84.1355-56.1056 61.1434 32.3729 49.2258 73.0453-26.164 19.7342-30.73 72.4867-1.2258 52.1647 31.7092 14.8269 86.7943-36.263 35.47 22.08-23.4478 7.756-83.419 35.9575-41.48 43.01Zm132-160c-12.8173 5.0265 8.6328 10.6975 0 0zm238 36c-15.7179 10.365 8.1514 15.1441 0 0zm627 83c-12.8173 5.0265 8.6328 10.6975 0 0zm30 17c3.3411-24.2044-45.0116-11.2751 0 0zm31 21c4.9352 21.396 42.8358 9.9469 0 0zm-143 3c26.8623-9.9347-17.5079 25.493-.064.1273zm24 5c20.2351-7.1936 5.3609 15.0432 0 0zm-51 15c44.9063-40.1908-22.4711 48.8704 0 0zm220-9c29.4899 7.5785 18.3269 23.7423 0 0zm-135 10.01c12.4987 35.893 31.3826-16.9987 0 0zm109-4.01c-15.3602 17.6358 4.6329 13.7232 0 0zm47 8c30.917 6.928 9.0824 31.6457 0 0zm-228 17c16.1515-13.0201 37.3884 3.2986 0 0zm-55 12c23.9838-47.6632 18.2517 9.2248 0 0zm244-13c-10.2262 7.5749 8.2803 5.77 0 0zm-192 2c-.5016 17.6373-18.1701.4054 0 0zm-23 6c42.555 8.852-46.0354 9.2466 0 0zm106-4c-54.7152 7.2355 24.6421 34.0001 0 0zm-77 1c18.0375.5208-11.5345 18.4385 0 0zm111 3c-11.9024 17.274 6.5743 14.7009 0 0zm203 8c-68.2229-4.4414 12.3716 32.6947 0 0zm-332 9c5.2544-22.4578 17.8507-1.8683 0 0zm-47-2c9.2136-1.5488-1.5488 9.2136 0 0zm38 9c2.2214-14.498 15.7618-1.5811 0 0zm-24 1c49.3007-14.983-6.7438 24.2628 0 0zm-12 6c.6522-13.1001 16.5948-1.4012 0 0zm453 34c30.2886 27.1197 63.1517 63.9442 100.98 87.05-15.9567-42.1859-73.9983-89.779-119.9738-111.3538-51.3428-23.099-81.531-10.1376-24.0725 14.485 8.6635 10.7455 44.8896 23.6507 43.0663 9.8188zm-466-36c18.3044-9.8987-1.4162 14.4649 0 0zm249 17c11.367 11.6635 10.3581-10.0928 0 0zm-92-.09c-13.7659 11.132 14.4828 10.2917 0 0zm117 1.09c-11.8723 3.8087 15.4036 12.3628 0 0zm-10 1c-54.7671 8.816-22.1699 60.1215-19.3177 16.7309 33.5542 3.515 46.699 28.8632 19.3177-16.7309zm133 9c-22.8804-18.7832 11.5161 15.8026 0 0zm-345 7c29.031-38.721 110.9959 23.89 30-6l-17.2687 2.6212zm376-13c12.2848-2.065-2.065 12.2848 0 0zm13 3c11.2448-2.2512-1.3067 10.0472 0 0zm-456 3c-10.2262 7.5749 8.2803 5.77 0 0zm13 2c-15.568 2.3208 1.2309 22.9881 0 0zm450-3c11.1158 1.9939 1.9939 11.1158 0 0zm-77 16c17.6999 6.6477 10.0435-19.1756 0 0zm-340-2c-26.4031 19.0953 2.0298 23.5606 0 0zm66-1c29.2479 5.3522 13.9967 30.2196 0 0zm10 20c-34.7746 36.419-85.2122-7.939-19-14.69 7.9378 3.1103 10.5109 12.3475 19 14.69zm281-11c6.4163-9.5671-12.6035-1.4543 0 0zm-23 4c-26.4448 12.7452-110.5357-18.0651-51.8584 14.6372 37.5568 4.2665 41.6774 15.2005 50.5042-5.9758-6.8865.4878 1.3696-5.989 1.3542-8.6614zm-285-5c-10.2262 7.5749 8.2803 5.77 0 0zm354 11c-59.4947-17.712 48.8491 26.734 0 0zm-340-2c-30.6898-13.1002-34.1333 26.6095 0 0zm21 0c34.0275-5.3527 7.8418 20.893 0 0zm345 5c-21.532 31.8669 39.7289 49.8664 59.9 71.67 33.453 32.6244 49.9788 25.732 16.36-12.18-22.1617-25.0546-44.0686-51.3314-76.26-59.49Zm-286 19c-10.6089-53.886-12.7443 95.1652 6.27 25 4.6521-15.7692-16.2589-11.4748-6.27-25zm159 4c-31.3724-22.9772-94.5918-.3027-31 23.97-13.4032-27.9348-4.8767-9.7967 31-23.97zm224-6c9.2136-1.5488-1.5488 9.2136 0 0zm-290 15c-10.2262 7.5749 8.2803 5.77 0 0zm175 1c-6.4873 7.732 7.7541 10.8322 0 0zm-386 13c8.1877-13.3998-18.1716-12.1838 0 0zm262-5c-8.7801-3.8083-6.97 6.4376 0 0zm84-2c-6.4952 9.5165 10.2401 11.916 0 0zm-473 3c11.2448-2.2512-1.3067 10.0472 0 0zm115 4c-10.8535-3.7627-7.5071 8.9953 0 0zm-288 5c-12.331 11.4912 16.718 16.2681 0 0zm227 2c-25.4545-1.891-30.5395 28.4174 0 0zm425 1c-8.0765 17.5225 32.6214 30.946 4.6755 4.4812l-3.9845-3.8189zm-107 8c-13.4095 2.5945 2.2837 22.8173 0 0zm252 0c-9.5672-6.4163-1.4543 12.6035 0 0zm-617 1c-9.5672-6.4163-1.4543 12.6035 0 0zm272 1c-10.583 7.1489 11.2695 7.5822 0 0zm13 7c-10.2262 7.5749 8.2803 5.7701 0 0zm239 7c-9.5628-9.7536-8.0318 7.7588 0 0zm1 18c6.4163-9.5672-12.6035-1.4543 0 0zm27 4c-38.1797 2.4401 62.3095 82.2453 8.83 14.4-6.6005-.8294-15.0948-7.5241-8.83-14.4zm-422-4c11.1223 2.3372 1.8952 10.8575 0 0zm530.15 1.91c-24.7191 32.0654 37.3082 23.2415 0 0zM1111 1046c-10.2262 7.5749 8.2803 5.7701 0 0zm-39 4c-61.043 4.9233-5.1945-16.3287-1.0621 2.8324zm630 3c-10.7779-10.2071-.9338 10.4346 0 0zm-99 2c-10.2262 7.5749 8.2803 5.7701 0 0zm116 19c-36.9573-38.1185 11.0952 42.7757 0 0zm-541-14c15.5055-3.2584-1.5634 12.8292 0 0zm87 4c-2.2199 26.8535 29.7358 5.4854.6614 2.6458zm-165 16c-6.043-29.0629-40.4756 1.5197 0 0zm667-6c-5.7652 15.0611 16.5873 10.6065 0 0zm-483 9c24.0124 5.486 11.3943-19.1829 0 0zm99-2c-52.4813 11.5537 49.422 55.1299 0 0zm7 6c-10.2262 7.5749 8.2803 5.7701 0 0zm-168 2c13.0579-3.1315-.9266 10.9349 0 0zm10 4c13.6431-2.4069-2.9742 17.7805 0 0zm11 2c39.9255-10.0346-17.9969 31.2677 0 0zm486 10c-8.7801-3.8083-6.97 6.4376 0 0zm-470-2c13.3283-5.3167 6.0262 16.1142 0 0zm-8 1c13.1201-1.8461-2.7522 14.3554 0 0zm414 2c-55.9237 37.7213 40.3483 35.357 48 73-43.0948 6.5313 52.5648 61.7834 26.9551 37.5025-28.8243-44.5912-6.3281-38.9088-50.0349-81.3655-7.8158-10.0324-16.7078-19.3765-24.9202-29.137zm-248 16c-13.1967-13.2903-14.2939 12.3537 0 0zm358-4c-24.7847 16.1344 16.9095 20.6431 0 0zm-48 6c15.9858 14.6016 18.7117-13.1012 0 0zm-473-4c16.3648-3.1892-2.3239 14.9637 0 0zm-18 4c19.7175 7.4768-6.9817 16.9715 0 0zm68 2c-14.6585 7.6663 16.7092 11.7476 0 0zm458 6c-19.9453-19.0583-16.2683 17.5091 0 0zm-588-6c17.1772 3.9564 2.9264 16.9106 0 0zm-32 6c12.2848-2.065-2.065 12.2848 0 0zm129 11c-15.8555-7.1486 6.6308-20.8552 0 0zm-21-10c13.0579-3.1315-.9266 10.9349 0 0zm-11 9c9.2136-1.5488-1.5488 9.2136 0 0zm15 1c20.667-.8858 5.4041 19.1956 0 0zm23 0c41.3184 32.6819-29.6524 22.7402 0 0zm38 1c-15.5736 11.6919 32.7232 19.7915 0 0zm-71 2c29.9383 11.0823-2.5557 30.1307 0 0zm225 18c-8.7801-3.8083-6.97 6.4376 0 0zm-211-1c10.0472-1.3067-2.2512 11.2448 0 0zm359 3c-5.946 2.91 4.5213 12.1801 0 0zm197 6c-16.1052 43.3111 73.76 102.9628 15.1788 23.4688l-8.3483-13.7552zm-545 1c10.9349-.9266-3.1315 13.0579 0 0zm527 2c-5.0947 20.2282 15.4179 16.8019 0 0zm-595 9c5.4007-17.6032 16.6434 1.2353 0 0zm461 2c-36.2087 15.3638 18.5884 42.8394 1.0728 13.1741 9.3832 2.9491-.8839-10.7758-1.0728-13.1741zm-410 6c15.356-2.5813-2.5813 15.356 0 0zm548 1c-10.2262 7.5749 8.2803 5.7701 0 0zm-534 9c12.2848-2.065-2.065 12.2848 0 0zm441 9c-17.2618-15.2679-14.7097 9.1982 0 0zm-328 9c18.3106-11.7105-10.3985-13.2595 0 0zm-234-11c11.1672 3.9309-2.641 20.734 0 0zm63.2 8c18.4179 1.355-2.4014 21.5687 0 0zm80.8 2c9.2136-1.5488-1.5488 9.2136 0 0zm387 13c-67.712-22.4287 55.0904 24.7638 0 0zm32-6c-22.3296-15.3887-.6674 10.9259 0 0zm-482-3c19.1049 11.4534 1.0637 20.6966 0 0zm159 12c6.4518-17.4716-20.0241-8.28 0 0zm13-1c10.9449 10.8427 9.2157-11.633 0 0zm402-1c-26.5304 11.2516-1.6222 18.5242 0 0zm-527 4c32.2228 21.7523-31.7273 35.5979 0 0zm413 9c-46.686 10.3186 46.9788 63.6531 4.1 20 55.2917 23.365-33.1396-15.8793-4.1-20zm-333-3.97c19.6799-3.407 3.62 16.8814 0 0zm438 13.97c18.9789 10.602 14.5993-25.1806 0 0zm-419-10c11.2448-2.2512-1.3067 10.0472 0 0zm-253 3c28.4146 8.2646-4.863 27.1076 0 0zm169 0c34.2283-1.5513-5.4665 45.8405 0 0zm-158 1c12.2848-2.065-2.065 12.2848 0 0zm117 0c18.4098-4.7595-4.5094 25.9006 0 0zm604 1c-9.4866 20.3987 13.0235 28.4391 0 0zm-68 3c-13.1411 3.9304 6.2017 7.949 0 0zm-415 1c11.269-4.5987 3.6536 15.5841 0 0zm434 18c31.1728-22.1553-26.1074-11.2588 0 0zm-476-14c9.6061 1.7177 3.5461 8.8173 0 0zm52 1c13.6431-2.4069-2.9742 17.7805 0 0zm-169 2c12.3042 2.8448.7994 12.8549 0 0zm-83 8c30.8894-.9333 3.2177 31.7216 0 0zm654 15c-10.8331 36.6926 42.8517 18.1222-7-10zm39-9c-37.9024 17.4206 29.9856 25.1331 0 0zm-586-2c11.2448-2.2512-1.3067 10.0472 0 0zm-36 7c17.7977 5.5137-5.9819 22.6797 0 0zm482 3c-14.0018 6.1744 11.4084 6.717 0 0zm13.19 3.97c-2.0256 29.3751 47.1249 5.7389 0 0zM1264 1287c2.6581 16.5537-23.1463 5.8807 0 0zm-161 1c10.2781 1.8641-1.1042 14.8008 0 0zm176 3c12.2386-.7727-3.0365 19.0997 0 0zm17 5c26.9193-3.1552-6.9785 22.8512 0 0zm-32 1c19.0627 6.8071 4.4596 36.2915 0 0zm575 5c-13.0587-11.4326-11.9229 19.326 0 0zm-520-1c29.1045 3.8552-4.4293 31.7676 0 0zm-202 10c9.8038 1.37 3.3346 9.15 0 0zm158 31c19.2497-54.8905 36.315-8.9984 0 0zm33-21c-.3325-16.6202 11.3885.7732 0 0zm535-5c-18.3549-5.9737-13.8599 23.1964 0 0zm-520 7c-15.5306-1.358 5.2243-17.8704 0 0zm456-5c-10.2262 7.5749 8.2803 5.7701 0 0zm-635 2c10.0472-1.3067-2.2512 11.2448 0 0zm114 2c14.406-.1868 4.4789 15.2279 0 0zm71 3c17.7891 3.5078 13.0645 31.753 0 0zm460 10c-10.2262 7.5749 8.2803 5.7701 0 0zm-546 4c15.3496-1.5102-6.32 19.8536 0 0zm112 5c21.4007-8.5642 6.5807 17.43 0 0zm-64 4c12.2848-2.065-2.065 12.2848 0 0zm47 0c30.7259 4.4848 11.0533 27.4496 0 0zm-67 2c12.2848-2.065-2.065 12.2848 0 0zm8 15c42.4408 11.1865 35.5406 95.2063 7.32 19l-4.7588-8.9225zm57 0c14.774 5.106-4.6993 12.4513 0 0zm-70 3c23.1257 43.6253-22.969 31.3872-15.24 65.01-28.8203 28.9272 11.0233-61.2972 15.24-65.01zm156 3c11.2086 3.9146-.2605 20.7271 0 0zm-172 2c13.7962 5.1551-.6344 15.7837 0 0zm58 1c9.2136-1.5488-1.5488 9.2136 0 0zm33 5c39.5736 9.584 43.3327 45.7585 0 0zm49 3c46.951-2.3417 15.7418 39.8864 0 0zm-63 7c34.6899 5.2352 32.7168 40.4509 0 0zm89 8c10.5359-.8439.014 21.4796 0 0zm-92 10c21.5649 11.9294-8.6384 15.8857 0 0zm70 5c12.755-2.3405-2.8244 22.03 0 0zm9 17c24.3747-41.7117 33.8671 18.9778 0 0zm207-16c-15.4344 30.7186 31.9706 54.8928 0 0zm-113 5c-12.8404 8.5297 11.3946 14.1996 0 0zm-151 1 4 4zm276 6c-10.2262 7.5749 8.2803 5.7701 0 0zm-295.7 2.75c19.2034-.1332-5.9535 15.6946 0 0zm-13.3.25c24.293 13.7206 6.2418 36.8443 0 0zm67 5c9.2136-1.5488-1.5488 9.2136 0 0zm457 4c-5.946 2.91 4.5213 12.1801 0 0zm-705 0c9.2136-1.5488-1.5488 9.2136 0 0zm220 0c19.8932 5.3351 7.4564 22.6903 0 0zm432 1c-30.121 9.1781 4.7367 19.6384 0 0zm-360 14c-6.3299-25.8033 15.08-.3594 0 0zm83-5c-13.786 3.7567 9.4405 9.9154 0 0zm-272 2c11.3538.685-2.4467 9.9111 0 0zm196 4c9.2136-1.5488-1.5488 9.2136 0 0zm-140 8c-10.7259-10.4323-9.3259 8.4802 0 0zm27-5c9.15 3.3346 1.37 9.8038 0 0zm44 0c9.2136-1.5488-1.5488 9.2136 0 0zm470 8c-10.2262 7.5749 8.2803 5.7701 0 0zm-591 1c9.2136-1.5488-1.5488 9.2136 0 0zm76 0c31.164 18.2385 18.6683 69.7977 0 0zm544 4c-15.529-5.1159-10.052 12.4867 0 0zm-617 1c9.2136-1.5488-1.5488 9.2136 0 0zm84 0c11.2448-2.2512-1.3067 10.0472 0 0zm15 31c-5.6838-38.4691 25.2121-19.7046 0 0zm-45-17c9.2136-1.5488-1.5488 9.2136 0 0zm160 8c30.5254 6.5603-2.4064 20.3341 0 0zm490 2c-8.6163 9.5734 7.2408 14.0235 0 0zm-670 6c-10.8535-3.7627-7.5071 8.9953 0 0zm163-2c-11.2086 8.3483 14.3594 9.0968 0 0zm272 0c-6.4254 15.0101 17.2383 15.327 0 0zm22 8c-8.7801-3.8083-6.97 6.4376 0 0zm-267-2c18.1764 4.3621 3.6253 21.3103 0 0zm-321 8c-14.0018 6.1744 11.4084 6.717 0 0zm613 3c-10.9609-7.3078-9.089 12.6944 0 0zm-285 0 4 4zm293 18c5.5904-10.6096-14.5103-3.1499 0 0zm-346-6c12.2848-2.065-2.065 12.2848 0 0zm-29 6c9.2136-1.5488-1.5488 9.2136 0 0zm-90 7c-6.9978 14.8963 17.8696 10.7044 0 0zm494 22c-23.6906-54.8939-40.7417 49.0486 8.5239 12.0506 7.4494-2.3234 12.1022-22.883-8.5239-12.0506zm-332-15c3.2021-13.9145 12.9423-1.3447 0 0zm427 1c-11.7572-10.3218-11.8351 7.9684 0 0zm-51 2c-9.4412-6.8183-8.8893 6.8451 0 0zm-489 28c9.208-38.3366-59.3411-21.2944-7-2-19.5138-3.8198 3.7383 15.8281 7 2zm77-27c-12.658 37.9096 10.7229 5.7117 22 19.78 35.6052-9.677-21.1974-9.8239-22-19.78zm308 2c-8.7801-3.8083-6.97 6.4376 0 0zm172 12c-20.1643-19.1993-43.4127 2.4615-4.6225 5.3512zm-707-4c9.2136-1.5488-1.5488 9.2136 0 0zm302 0c9.2136-1.5488-1.5488 9.2136 0 0zm-112 23c-23.7589-48.9422-29.5564 8.4891 0 0zm-77-16c-9.4412-6.8183-8.8893 6.8451 0 0zm563-1c-8.7801-3.8083-6.97 6.4376 0 0zm12 0c-29.2635 2.738 5.5778 64.8271 0 0zm-695 2c9.2136-1.5488-1.5488 9.2136 0 0zm276 3c-8.7801-3.8083-6.97 6.4376 0 0zm33 1c3.5461-8.8173 9.6061-1.7177 0 0zm-134 5c-9.4412-6.8183-8.8893 6.8451 0 0zm469 39c50.494-23.8582-49.9758-59.4708-10.41 5.42 3.6355 3.8947 12.0003.6925 10.41-5.42zm-371-36c-8.7801-3.8083-6.97 6.4376 0 0zm-108 13.8c76.5356 18.0861-48.041-26.8479 7.7762 21.4287 13.6646 1.8381 1.08 26.6038 15.6038-5.0487-5.6903-7.6601-23.1714-9.3492-23.38-16.38zm-13-7.8c-10.2262 7.5749 8.2803 5.7701 0 0zm142 7c-40.4689-13.285-44.9959 19.5813 0 0zm202 0c-10.2262 7.5749 8.2803 5.7701 0 0zm-168 5c-10.2262 7.5749 8.2803 5.7701 0 0zm-19 3c-19.5932 2.6185-4.7393 29.9165 0 0zm-159 0c-10.2262 7.5749 8.2803 5.7701 0 0zm404 4c-12.9089-8.4582-10.5912 11.0776 0 0zm-387-2 5 5zm62.08 2c-28.4298 41.6003 72.9881 53.7802 30.82 27.88-11.2655-3.8075-27.2346-12.8711-30.82-27.88zm413.92-1c12.2848-2.065-2.065 12.2848 0 0zm-350 16c-45.8877-31.2834-30.4632 26.073 0 0zm-69-1c-68.3708-35.1832 5.2144 61.8302 0 0zm349-1c-12.2112-13.4884-11.3185 10.3597 0 0zm-13-2c-8.7801-3.8083-6.97 6.4376 0 0zm-249 5c-57.2993 25.4075 11.773 27.2555.2547.7642zm350.09 3.2c-8.605 5.7138 9.2432 6.2597 0 0zm-493.09.8c-13.1428-.9986-4.741 9.9094 0 0zm-14 2c-10.2262 7.5749 8.2803 5.7701 0 0zm88 33c-28.505-22.7568-93.1832-28.0811-40.255 14.6513-3.6 23.1154 8.2834 10.3043 27.965 16.7987 12.6368 30.5809 37.3177-20.3955 6.3888.3475-4.239-10.4955 10.7349-28.2877 5.9012-31.7975zm377-21c-13.8068-10.7022-12.4852 8.7255 0 0zm-382 7c-8.9077 9.6496 13.8955 3.7507 0 0zm21 3c-9.5672-6.4163-1.4543 12.6035 0 0zm457.97 8c-16.2654-5.723 3.1795-18.1649 0 0zm-99.97-3c15.7162 15.5378 21.8052-8.9905 0 0zm-340 3c-20.2112-6.0294-13.8326 12.3089 0 0zm-22 2c-10.2262 7.5749 8.2803 5.7701 0 0zm-62 4c9.2136-1.5488-1.5488 9.2136 0 0zm23 8c6.4483-12.8731 21.8196 6.3083 0 0zm106 3c10.2158-2.3195-7.3249 12.6557 0 0zm42 0c9.4534 10.8704-11.3305 14.5214 0 0zm-15 5c9.2136-1.5488-1.5488 9.2136 0 0zm-130 23c-9.4412-6.8183-8.8893 6.8451 0 0zm171 1c18.5422-6.0132.033 15.7169 0 0zm299 4c-10.2262 7.5749 8.2803 5.7701 0 0zm-968 16c-21.6698-12.2025-17.7698 13.0957 0 0zm973 1.2c-6.4428 4.4353 6.4428 4.4353 0 0zm19 5.8c12.6731 6.094 6.9914-18.276 0 0zm-34 2c-16.73 1.0671 47.5771 65.1995 0 0zm-1000 3c-8.78-3.8083-6.97 6.4376 0 0zm603 5c7.2024-17.335 25.4645 11.0015 0 0zm119-4c9.2136-1.5488-1.5488 9.2136 0 0zm-126 1c9.8038 1.37 3.3346 9.15 0 0zm-575 16c-49.0574-30.1452-28.5699 10.2361 0 0zm1016-13c9.2136-1.5488-1.5488 9.2136 0 0zm-345 10c9.2136-1.5488-1.5488 9.2136 0 0zm-732 10c1.954-10.9622 11.09-2.2451 0 0zm724-4c14.9349-5.5143-3.561 11.8158 0 0zm-675 9c-8.78-3.8083-6.97 6.4376 0 0zm688 5c35.6631-2.0845 44.0805 86.2058 36.64 75.4225 3.0529 7.4507-15.2785 38.9531-41.76 46.7275-24.8132 28.8636-51.181 41.7566-74.1347 20.6142 15.5876-18.6819 85.1417-69.1711 27.2547-48.7642 27.6447-14.7994 12.2111-36.8923 42.305-37.5475 15.5459-11.984 45.3723-2.3144 18.4263-44.3075-6.1782.3148-9.0319-7.1327-8.7313-12.145zm-777 5c9.2136-1.5488-1.5488 9.2136 0 0zm-29 7c37.2232-15.1049-2.596 23.2088 0 0zm839 1c12.0142 1.6616-2.4095 20.1653 0 0zm-28 7c11.2448-2.2512-1.3067 10.0472 0 0zm-836 6c13.1202-1.8461-2.7522 14.3554 0 0zm259 56c59.721-29.7193 113.9978-83.8518 189.2148-33.2531 36.9363 8.0023 92.1223 35.4544 71.8752 78.6931-29.6123 39.4267-80.5357 33.8114-118.4038 57.0968-53.0736 28.7823-114.9166 11.6697-171.6862 27.3032-76.4104.5967-145.0231 36.6403-218.9425 44.1672-56.8037 26.2804-181.5278-91.4526-105.6584-106.6605 37.3007-22.7352 152.1831 97.0279 95.4021 57.9683 54.675-24.75 29.7299-31.4282 52.2988-27.045 18.3376 12.9512 42.5144-43.9734 52.8512-.6725 3.3911-12.9499 51.4222 12.4185 5.0488-22.5975 39.5217-10.9772 36.1575-.2855 37.299-27.19 41.2654 34.0335-6.2116-20.124 42.2454 6.0491-74.9082-40.2502 244.1239 41.6182 34.3694-20.3929 31.4285 43.1367 9.2767-31.3572 48.2262-.4962 40.0194-1.4022-40.9196-10.5482-14.14-32.97zm-249-49c5.6191-12.5943 13.8993 4.7582 0 0zm-6-1c38.2798 31.6444-23.674 63.3678-13 10 8.0565-1.4751 4.6317-7.9151 13-10zm1058 51c77.1021 13.5178 23.9347-81.3207-13.09-22-32.0905 7.5453 23.7984 56.0546 13.09 22zm-1037-29c29.3247 3.1854-.112 23.3089 0 0zm826 17c16.5862-24.9452-37.4748-2.0354 0 0zm-825 4c-15.6042-.3082 6.853-18.0736 0 0zm-85 1c3.0028-17.2092 17.4511 9.1987 0 0zm881-5c-8.904 12.5678 15.672 12.4104 0 0zm-226 6c23.9214-10.0163 2.0984 19.6807 0 0zm-718 21c-4.1594-37.125 44.901-6.3157 0 0zm414-18c-12.8173 5.0265 8.6328 10.6975 0 0zm-303 17c1.151-31.4411 39.057-8.9805 0 0zm68.14-6.95c-20.3305 25.9021 32.0952 24.0355 0 0zM1336 1859c13.1201-1.8461-2.7522 14.3554 0 0zm175 5c9.2136-1.5488-1.5488 9.2136 0 0zm-204 11c2.5708-21.2984 21.0141-4.9685 0 0zm-553-8c26.0463-3.3356-2.74 28.6397 0 0zm1080 11c-19.6851-22.3367-21.2374 4.2519 0 0zm-341-10c15.9491-.9967 4.9668 14.144 0 0zm-721 5c14.3554-2.7522-1.846 13.1201 0 0zm-148 1c10.0472-1.3067-2.2512 11.2448 0 0zm666 7c6.2547-16.6671 23.3284 1.4202 0 0zm328-7c12.0541 16.1785-11.1943 42.4853-2.81 8.04zm-984 6c2.2451-11.09 10.9622-1.954 0 0zm-21 31c-5.5476-55.9411 41.6983-28.4263 0 0zm322-24c5.8582-15.8031 15.2614 9.9885 0 0zm-32 0c9.2136-1.5488-1.5488 9.2136 0 0zm499 0c19.548-3.6921-1.6568 22.0878 0 0zm-511 5c11.2448-2.2512-1.3067 10.0472 0 0zm-99 1c9.2136-1.5488-1.5488 9.2136 0 0zm805 4c16.7701 19.6925 11.728 19.4259 40.26 4.99-7.3592 34.3924 33.2443 78.9179-45.26 74.91-53.7722-9.3493-106.8991 9.5602-153 27.1 20.3081-52.8832 36.8079-33.457 71.2955-47.168 37.7355-12.4516 16.1559-30.6785 53.7645-5.382 4.2364-25.6058 44.4344-8.4315 32.94-54.45zm-10 1c11.2448-2.2512-1.3067 10.0472 0 0zm-790 1c9.1196-.14-1.7993 21.9547 0 0zm-50 1c12.039 2.2648.436 15.2906 0 0zm103 13c11.2448-2.2512-1.3067 10.0472 0 0zm620 11c6.0086-34.2168 31.1355 16.5703 0 0zm-649-9c15.1727 3.9615-4.6394 13.1803 0 0zm516 15c-15.0814-6.8346 9.1656-17.0953 0 0zm10-11c14.3554-2.7522-1.8461 13.1201 0 0zm15 4c9.2136-1.5488-1.5488 9.2136 0 0zm-430 13c-16.1157-23.9211-28.7742 11.3752 0 0zm462-11c9.2136-1.5488-1.5488 9.2136 0 0zm-112 1c29.3572-2.8941 1.5911 16.1135 0 0zm248 0c12.2848-2.065-2.065 12.2848 0 0zm-174 1c35.2344 25.801 57.6914 61.5635 42 85 27.5581-24.5774 40.3641-3.6706 33.42 38-19.5304 47.5594-69.3038 86.956-124.1477 72.6073C1235.6524 2142.969 1154.4776 1996.4611 1262 2035c10.0478-38.1905-56.8436-12.475-43.5901-51.0723-17.1242-73.5125 66.6365-18.9582 43.5901-27.9277 33.5064 8.7256 12.2021 50.2736 38.32 19 7.511-10.8928 22.0391-2.4291 33.68-26 16.6158 49.3504-1.8995-48.3073 25.11-8.16l-1.98-6.84zm12 2c9.2136-1.5488-1.5488 9.2136 0 0zm-500 12c13.8605-.7282 3.0542-11.8688 0 0zm-91-6c28.5667-7.5768 9.3175 24.6684 0 0zm451-1c11.2448-2.2512-1.3067 10.0472 0 0zm91 8c14.6152-21.6473 24.6035 9.6 0 0zm230-8c15.8729 1.6372 2.161 14.4565 0 0zm-732 1c15.3125-5.7663-4.5835 14.1273 0 0zm702 1c9.2136-1.5488-1.5488 9.2136 0 0zm-95 6c15.4099 5.6762-7.2365 24.8155 0 0zm-112 2c12.918-3.1844-5.8201 17.5168 0 0zm-565 1c13.1202-1.8461-2.7522 14.3554 0 0zm525 2c9.2136-1.5488-1.5488 9.2136 0 0zm-441 8.15c-17.795 1.2885 13.1504 18.4886 0 0zm-60-.15c9.2136-1.5488-1.5488 9.2136 0 0zm504 1c9.2136-1.5488-1.5488 9.2136 0 0zm-453 13c-13.1202-20.1653-18.7502 8.5922 0 0zm400-8c-12.3118 3.6806 7.9666 8.5231 0 0zm159 4c-10.2262 7.5749 8.2803 5.7701 0 0zm-594 9c20.7067 23.2121 30.6444-24.9155 0 0zm444-7c-12.8173 5.0265 8.6328 10.6975 0 0zm180 1c14.3554-2.7522-1.8461 13.1201 0 0zm-566 5c9.2835 14.2713 20.2481-6.8698 0 0zm-88 4c-9.3512-9.9174-9.7382 4.4635 0 0zm60-1c-10.2262 7.5749 8.2803 5.7701 0 0zm527 5c-9.4412-6.8183-8.8893 6.8451 0 0zm-518 11c7.0433-15.2708-16.537-6.3111 0 0zm441 10c-3.1179 5.0832 63.7421 52.3029 46 11 17.0265-8.7317-16.7884-2.0586-46-11zm63 5c-12.114 3.9663 5.201 8.3722 0 0zm-116 6c12.2848-2.065-2.065 12.2848 0 0zm194 4c-9.4412-6.8183-8.8893 6.8451 0 0zm-68 3c-10.0221 8.1443 11.7002 12.0862 0 0zm-134 7c9.2136-1.5488-1.5488 9.2136 0 0zm128 12c-22.7687-16.2774-19.738 11.5875 0 0zm42 19c-27.5459 2.9085 12.1876 27.8335 0 0z" fill="inherit"/></svg>